<svg width="55" height="49" viewBox="0 0 55 49" xmlns="http://www.w3.org/2000/svg"><title>Group</title><g stroke-width="2.178" stroke="#666" fill="none" fill-rule="evenodd" stroke-linecap="round"><path d="M11.342 30.296l12.46 12.133 24.516-22.69c5.73-5.58 4.847-18.04 4.847-18.04S40.37.84 34.64 6.42L11.343 30.296z"/><path d="M23.234 18.126l-12.507 3.17-4.313 4.2 4.928 4.8M36.298 30.848l-3.255 12.18-4.314 4.2-4.93-4.8M34.407 6.66l13.67 13.312M10.13 38.777l-8.46 8.24M15.092 43.608l-4.23 4.12M36.164 22.024c-1.07 1.04-2.8 1.04-3.87 0-1.068-1.04-1.068-2.728 0-3.77 1.07-1.04 2.8-1.04 3.87 0 1.07 1.042 1.07 2.73 0 3.77z"/></g></svg>