<svg width="69" height="48" viewBox="0 0 69 48" xmlns="http://www.w3.org/2000/svg"><title>Group</title><g stroke-width="2.178" stroke="#666" fill="none" fill-rule="evenodd" stroke-linecap="round" stroke-linejoin="round"><path d="M1.653 1.78v38.59l21.653 6.274V8.057zM23.306 46.787l22.02-6.66V1.638L23.307 8.3M45.327 1.64l22.02 2.96v39.227l-22.02-3.7M7.892 25.29s.5-.216 1.238-.397"/><path d="M14.118 25.944c.552.647.96 1.59 1.114 2.94 0 0 0 6.468 8.074 5.03 0 0 5.872-.718 4.404-11.498 0 0 0-4.31 5.14-5.03 0 0 4.402-1.437 5.137 5.75 0 0 1.468 2.154 4.403 2.154 0 0 2.937 0 2.937-5.748 0 0 .304-2.924 2.61-3.56" stroke-dasharray="1.926399850845337,3.852799701690674"/><path d="M50.593 16.17c.375.124.775.287 1.204.498M56.635 20.15l5.098-3.916M57.184 15.696l4 4.99"/></g></svg>