<?xml version="1.0" encoding="utf-8"?>
<!-- Generator: Adobe Illustrator 20.1.0, SVG Export Plug-In . SVG Version: 6.00 Build 0)  -->
<svg version="1.1" id="Layer_1" xmlns="http://www.w3.org/2000/svg" xmlns:xlink="http://www.w3.org/1999/xlink" x="0px" y="0px"
	 viewBox="0 0 57 36" style="enable-background:new 0 0 57 36;" xml:space="preserve">
<style type="text/css">
	.st0{fill:#666666;}
	.st1{fill:#FFFFFF;}
</style>
<title>Page 1</title>
<g>
	<path class="st0" d="M0.5,15.7c-0.5-0.3-0.7-1-0.3-1.6c0.3-0.5,1-0.7,1.6-0.3l6.3,4.1c0.1,0,0.1,0.1,0.2,0.1
		c0.3,0.3,2.1,2.1,3.4,3.4c0.5-0.5,1.1-0.9,1.8-1c0.9-0.2,1.8,0,2.5,0.5c0.3,0.2,0.6,0.5,0.8,0.8c0.5-0.5,1-0.9,1.7-1
		c0.8-0.2,1.6,0,2.3,0.5l0.1,0c0.7,0.5,1.1,1.2,1.3,2c0,0.2,0.1,0.4,0.1,0.6c0.5,0.1,0.9,0.2,1.3,0.5c0.7,0.5,1.1,1.1,1.3,1.9
		c0.1,0.5,0.1,1-0.1,1.5c0.3,0.1,0.6,0.2,0.9,0.4c0.7,0.5,1.1,1.1,1.3,1.9c0.1,0.7,0,1.4-0.3,2l3,0.7c0,0,1.6,0.3,2.6-0.4l-3.8-1.9
		c-0.6-0.3-0.8-1-0.5-1.5c0.3-0.6,1-0.8,1.5-0.5l4.9,2.5c0.7,0,1.1-0.1,1.4-0.4c0.2-0.3,0.3-0.6,0.4-1l-5.6-3
		c-0.6-0.3-0.8-1-0.5-1.5c0.3-0.5,1-0.8,1.5-0.5l6.1,3.2c0.7,0.1,1.2,0.1,1.5-0.2c0.3-0.2,0.5-0.7,0.7-1l-7.4-4.2
		c-0.5-0.3-0.7-1-0.4-1.5c0.3-0.5,1-0.7,1.6-0.4l7.9,4.5c0.5,0.1,1,0.1,1.3-0.2c0.3-0.3,0.3-1.1,0.3-1.7l-13.7-8.6
		c0,0-0.1,0-0.1-0.1c-1.2-1-1.9-0.9-2-0.8c-0.1,0.1-0.2,0.2-0.3,0.2l-2.9,1.6c-2.5,1.8-4.4,2.4-5.8,1.9c-0.8-0.3-1.2-0.9-1.4-1.4
		c-0.3-0.5-0.6-1.8,2.4-5.3c-0.9-0.2-1.7-0.5-1.9-0.6c-0.1,0-0.2-0.1-0.2-0.1L8.4,4.2c-0.5-0.3-0.7-1-0.3-1.6c0.3-0.5,1-0.7,1.6-0.3
		l8.5,5.5c0.7,0.3,1.9,0.6,2.7,0.7c1.9-1.7,4-2,6.5-2.2l0.8-0.1c2.9-0.3,8.7-0.1,10.2,0l8.7-5.1c0.5-0.3,1.2-0.1,1.6,0.4
		C49,2,48.9,2.7,48.3,3l-9,5.3c-0.2,0.1-0.4,0.2-0.6,0.2c-0.1,0-7.1-0.4-10.2,0l-0.9,0.1c-2.7,0.3-4.3,0.4-5.8,2.3L21.7,11
		c-1.4,1.5-2.7,3.3-2.9,3.9c0,0,0,0.1,0,0.1c0,0,0.1,0.1,0.1,0.1c0.2,0,1.2,0.2,3.7-1.6c0,0,0.1,0,0.1-0.1l2.8-1.5
		c0.6-0.5,2.2-1.4,4.9,0.7l13.3,8.3l3.4-3.2c0,0,0.1-0.1,0.1-0.1c2.9-1.9,7.4-4.2,7.6-4.3c0.6-0.3,1.2-0.1,1.5,0.5
		c0.3,0.6,0.1,1.2-0.5,1.5c0,0-4.5,2.3-7.4,4.2l-3.5,3.3c0.1,0.9,0.1,2.5-0.9,3.5c-0.4,0.5-1.2,0.9-2.4,1c-0.2,0.7-0.6,1.6-1.5,2.2
		c-0.5,0.3-1.2,0.7-2.2,0.7c-0.1,0.6-0.4,1.3-0.9,1.9c-0.7,0.7-1.6,1-2.7,1.1c-1,1.5-2.8,1.9-4.3,1.9c-0.5,0-0.9,0-1.3-0.1L25.2,34
		c-0.4,0.5-1,0.8-1.6,0.9C23.4,35,23.2,35,23,35c-0.6,0-1.2-0.2-1.7-0.5c-0.4-0.3-0.7-0.6-0.9-1c-0.4,0.1-0.8,0.2-1.1,0.2
		c-0.6,0-1.2-0.2-1.7-0.5c-0.5-0.3-0.8-0.7-1-1.2c-0.1,0-0.2,0.1-0.3,0.1c-0.2,0-0.4,0.1-0.6,0.1c-0.6,0-1.2-0.2-1.7-0.5l-0.1,0
		c-0.8-0.5-1.2-1.4-1.3-2.2c-0.6,0-1.3-0.2-1.8-0.6c-1.5-1-1.9-3.1-0.9-4.6l0.6-0.8c-0.9-0.9-2.5-2.5-3.6-3.6L0.5,15.7"/>
	<path class="st1" d="M18.6,30.1c0,0,0,0.1-0.1,0.1c-0.2,0.4-0.1,0.8,0.2,1.1c0.4,0.2,0.8,0.1,1.1-0.2l2.7-3.9
		c0.1-0.2,0.2-0.4,0.1-0.6c0-0.2-0.2-0.4-0.3-0.5C22.2,26,21.9,26,21.7,26c-0.2,0-0.4,0.2-0.5,0.3c0,0-0.1,0.1-0.1,0.1L18.6,30.1
		 M23.3,30.1l-1,1.4c-0.1,0.2-0.2,0.4-0.1,0.6c0,0.2,0.2,0.4,0.3,0.5c0.2,0.1,0.4,0.2,0.6,0.1c0.2,0,0.4-0.2,0.5-0.3l1-1.4
		c0.1-0.2,0.2-0.4,0.1-0.6c0-0.2-0.2-0.4-0.3-0.5c-0.1-0.1-0.3-0.1-0.4-0.1C23.7,29.8,23.4,29.9,23.3,30.1L23.3,30.1z M16.7,26
		l-1.8,2.6c-0.3,0.4-0.2,0.9,0.2,1.1h0l0.1,0c0.2,0.1,0.4,0.2,0.6,0.1c0.2,0,0.4-0.2,0.5-0.3l3.6-5.3c0.1-0.2,0.2-0.4,0.1-0.6
		s-0.2-0.4-0.3-0.5l-0.1,0C19.5,23,19.3,23,19.2,23c-0.1,0-0.1,0-0.2,0c-0.2,0-0.4,0.2-0.5,0.3l-1.6,2.3L16.7,26L16.7,26z
		 M13.2,23.1l-1.6,2.3c-0.3,0.5-0.2,1.2,0.3,1.5c0.2,0.2,0.5,0.2,0.8,0.2c0.3-0.1,0.5-0.2,0.7-0.5l1.6-2.3c0.3-0.5,0.2-1.2-0.3-1.5
		c-0.2-0.1-0.4-0.2-0.6-0.2c-0.1,0-0.1,0-0.2,0C13.6,22.7,13.4,22.9,13.2,23.1L13.2,23.1z"/>
</g>
</svg>
